<?xml version="1.0" encoding="UTF-8"?>
<svg id="_Слой_2" data-name="Слой 2" xmlns="http://www.w3.org/2000/svg" xmlns:xlink="http://www.w3.org/1999/xlink" viewBox="0 0 231.84 105.6">
  <defs>
    <style>
      .cls-1 {
        filter: url(#drop-shadow-1);
      }

      .cls-1, .cls-2, .cls-3 {
        fill: #fff;
      }

      .cls-2 {
        filter: url(#drop-shadow-3);
      }

      .cls-3 {
        filter: url(#drop-shadow-2);
      }
    </style>
    <filter id="drop-shadow-1" x="0" y="0" width="231.84" height="105.6" filterUnits="userSpaceOnUse">
      <feOffset dx="0" dy="0"/>
      <feGaussianBlur result="blur" stdDeviation="2.83"/>
      <feFlood flood-color="#25377f" flood-opacity=".8"/>
      <feComposite in2="blur" operator="in"/>
      <feComposite in="SourceGraphic"/>
    </filter>
    <filter id="drop-shadow-2" x="69.82" y="4.3" width="154.08" height="92.16" filterUnits="userSpaceOnUse">
      <feOffset dx="2" dy="2"/>
      <feGaussianBlur result="blur-2" stdDeviation="5"/>
      <feFlood flood-color="#000100" flood-opacity=".8"/>
      <feComposite in2="blur-2" operator="in"/>
      <feComposite in="SourceGraphic"/>
    </filter>
    <filter id="drop-shadow-3" x="8.86" y="11.02" width="91.2" height="93.84" filterUnits="userSpaceOnUse">
      <feOffset dx="2" dy="2"/>
      <feGaussianBlur result="blur-3" stdDeviation="5"/>
      <feFlood flood-color="#000100" flood-opacity=".8"/>
      <feComposite in2="blur-3" operator="in"/>
      <feComposite in="SourceGraphic"/>
    </filter>
  </defs>
  <g id="_Слой_1-2" data-name="Слой 1">
    <path class="cls-1" d="M223.2,96.88H8.58s0-88.25,0-88.25h214.62s0,88.25,0,88.25ZM11.91,93.55h207.95s0-81.58,0-81.58H11.91s0,81.58,0,81.58Z"/>
    <path class="cls-3" d="M98.9,24.62h-.1c-.51,0-3.07-.15-3.51-.11-.03,0-3.92.65-4.84-5.92l-7.11-1.23c-.19,0-.34.19-.34.43v.05c0,.1.55.9,1.19,1.8,1.19,1.64,2.79,2.93,4.65,3.74l5.34,2.32c-2.64.86-4.28,3.54-3.21,6.46l2.7-.73s-4.1-3.47,1.69-5.13c.3-.09.42-.19,1.26-.38.08-.02.47-.11.88-.17,1.75-.25,4.29,0,4.29,0,.88.02,1.76.21,2.53.63.95.52,1.68,1.27,2.2,2.26l3.84,7.6c1.17,2.55,2.01,5.17,2.53,7.84.51,2.68.77,5.27.77,7.79v.98c-.04.11-.05.31-.05.6v.06s0,.05,0,.05v.06s0,.05,0,.05v.06s0,.06,0,.06v.27c-2.23-.84-4.32-1.26-6.26-1.26-2.89,0-5.63.71-8.2,2.14-2.58,1.43-4.91,3.47-7,6.11-.73.92-1.4,2.02-2,3.3-.6,1.28-1.11,2.6-1.51,3.96-.4,1.36-.62,2.41-.66,3.16-.04.75-.06,1.2-.06,1.35,0,.84.11,1.66.33,2.45.22.79.59,1.49,1.1,2.12.51.62,1.19,1.13,2.03,1.51.84.38,1.9.58,3.18.58,2.12,0,4.06-.34,5.82-1.01,1.76-.68,3.34-1.59,4.75-2.74,1.41-1.15,2.66-2.5,3.76-4.03,1.1-1.54,2.03-3.18,2.8-4.94.77-1.76,1.38-3.58,1.84-5.46.46-1.88.78-3.74.96-5.57,2.41,1.2,4.56,2.79,6.42,4.76,1.87,1.97,3.49,4.11,4.88,6.4l3.95,7.83c.18.36.27.73.27,1.1,0,.04,0,.18-.03.44-.02.26-.14.57-.36.93-.22.37-.51.66-.88.88s-.79.33-1.26.33h-2.41s0,1.1,0,1.1h24.53s0-1.1,0-1.1h-3.62c-.8,0-1.54-.21-2.2-.63-.66-.42-1.17-.99-1.54-1.72-.73-1.46-1.74-3.46-3.02-6-1.28-2.54-2.68-5.32-4.2-8.35-1.52-3.03-3.11-6.2-4.78-9.5-1.67-3.3-3.27-6.48-4.83-9.53-1.56-3.05-2.97-5.83-4.25-8.35-1.28-2.52-2.31-4.53-3.07-6.02-.15-.26-.22-.51-.22-.77,0-.33.15-.7.44-1.12.29-.42.75-.63,1.37-.63h75.52c.95,0,1.78.35,2.5,1.04.71.69,1.07,1.52,1.07,2.47v34.59c-.07,1.83-.33,3.54-.77,5.13-.44,1.59-1.02,2.97-1.73,4.14-.71,1.17-1.52,2.08-2.41,2.74-.9.66-1.84.99-2.83.99-.84,0-1.68-.26-2.53-.8-.84-.53-1.65-1.38-2.41-2.55-1.39-2.05-2.39-4.23-2.99-6.53-.6-2.31-1.02-4.74-1.26-7.3-.24-2.56-.41-5.27-.52-8.12-.11-2.85-.37-5.85-.77-9-.29-2.16-.95-4.16-1.98-6.01-1.02-1.85-2.3-3.44-3.84-4.77-1.54-1.34-3.28-2.39-5.24-3.16-1.51-.59-9.86-1.03-14.54-.75-.03,0-.07-.02-.1-.02h-.49s0,.92,0,.92c.08,0,.16,0,.24-.01h.25s.04,0,.06-.01c1.77-.03,3.7.42,4.13.84.69.68,1.04,1.49,1.04,2.44v42.75c0,.92-.33,1.82-.96,2.49-.71.75-1.57,1.13-2.56,1.13h-3.51s0,1.1,0,1.1h15.09s0-1.1,0-1.1h-3.46c-1.03,0-1.9-.38-2.61-1.13-.63-.67-.95-1.59-.95-2.51V28.51c2.12.44,3.8,1.44,5.02,2.99,1.23,1.56,2.17,3.47,2.83,5.74.66,2.27,1.11,4.8,1.34,7.6.24,2.8.45,5.65.63,8.56.18,2.91.42,5.78.71,8.62.29,2.84.8,5.42,1.54,7.77.51,1.68,1.21,3.13,2.09,4.33.88,1.21,1.87,2.2,2.99,2.99,1.12.79,2.3,1.37,3.57,1.76,1.26.38,2.55.58,3.87.58,1.79-.04,3.52-.33,5.19-.88,1.66-.55,3.14-1.43,4.42-2.63,1.28-1.21,2.32-2.81,3.13-4.8.8-1.99,1.24-4.45,1.32-7.37V29.22c0-.95.35-1.77,1.04-2.47.69-.69,1.52-1.04,2.47-1.04h3.57s0-1.1,0-1.1h-107.95ZM113.06,58.64c-.22,1.28-.53,2.59-.93,3.92-.4,1.34-.9,2.64-1.48,3.92-.59,1.28-1.28,2.42-2.09,3.43-.81,1.01-1.72,1.81-2.74,2.41-1.02.6-2.16.91-3.4.91-1.43,0-2.71-.44-3.84-1.32-1.32-1.02-2.05-2.07-2.2-3.13-.22-1.02-.33-1.88-.33-2.58,0-.92.16-2.01.49-3.29.15-.62.39-1.28.74-1.98.35-.69.74-1.37,1.18-2.03.44-.66.93-1.28,1.48-1.87s1.13-1.08,1.76-1.48c.8-.51,1.67-.92,2.61-1.24.93-.31,1.97-.47,3.1-.47,1.06,0,2.1.12,3.13.36,1.02.24,2.01.56,2.96.96-.07,1.02-.22,2.18-.44,3.46ZM122.94,61.11c-2.71-3.11-5.49-5.31-8.34-6.59.04-.51.06-1.01.08-1.48.02-.47.03-.95.03-1.43,0-.99-.06-2.2-.17-3.65-.11-1.44-.4-3.16-.88-5.13l9.28,18.28Z"/>
    <path class="cls-2" d="M81.58,41.37c-.93-3.29-2.35-6.22-4.25-8.78-1.9-2.56-4.32-4.63-7.24-6.2-2.93-1.57-6.4-2.36-10.43-2.36h-27.44s0,1.1,0,1.1h3.57c.95,0,1.76.35,2.44,1.04.68.69,1.02,1.53,1.02,2.52v20.53s-2.21,0-2.21,0c-.96-.04-2.44-.11-2.76-.09-.03,0-3.92.65-4.84-5.92l-7.11-1.23c-.19,0-.34.19-.34.43v.05c0,.1.55.9,1.19,1.8,1.19,1.64,2.79,2.93,4.65,3.74l5.34,2.32c-2.64.86-4.28,3.54-3.21,6.46l2.7-.73s-4.1-3.47,1.69-5.13c.3-.09.42-.19,1.26-.38.08-.02.47-.11.88-.17.87-.12,1.91-.12,2.76-.09v19.55c-.4.07-.73.15-.99.22-.26.07-.4.11-.44.11-1.32.37-2.41.97-3.27,1.81-.86.84-1.48,1.8-1.87,2.88-.38,1.08-.5,2.21-.36,3.4.15,1.19.58,2.34,1.32,3.45.73,1.11,1.78,2.12,3.16,3.02,1.37.89,3.1,1.58,5.19,2.06,1.21.29,2.43.52,3.68.69,1.24.16,2.56.25,3.95.25,1.39,0,3.33-.03,4.92-.26,5.33-.76,7.68-2.46,9.15-3.33l-7.29-1.59c-.1,1.5-1.48,3.46-3.05,3.79-1.43.3-1.86.22-3.14.3-1.79.04-3.27-.27-4.44-.93-1.17-.65-2.05-1.47-2.63-2.45-.59-.98-.89-2.04-.91-3.19-.02-1.15.26-2.19.82-3.12.57-.93,1.42-1.68,2.55-2.25,1.13-.57,2.52-.76,4.17-.58,1.9.18,3.49.53,4.77,1.04,1.28.51,2.43,1.04,3.46,1.59,1.02.55,2,1.04,2.94,1.48.93.44,2,.66,3.21.66,3,0,5.68-.79,8.04-2.36,2.36-1.57,4.34-3.64,5.95-6.2,1.61-2.56,2.83-5.49,3.65-8.78.82-3.29,1.23-6.65,1.21-10.07-.02-3.42-.49-6.78-1.43-10.07ZM72.71,61.12c-.26,3.16-.76,5.97-1.51,8.44-.75,2.47-1.71,4.45-2.88,5.95-1.17,1.5-2.54,2.25-4.12,2.25-.88,0-1.79-.24-2.74-.71-.95-.48-2-1.05-3.16-1.73-1.15-.68-2.42-1.42-3.81-2.22-1.39-.8-2.95-1.53-4.66-2.19v-20.7s5.39,0,5.39,0c.21,1.08,1.16,1.91,2.3,1.92,1.32.02,2.4-1.03,2.42-2.35.02-1.32-1.03-2.4-2.35-2.42-1.15-.02-2.12.78-2.36,1.86h-5.41s0-24.09,0-24.09h4.56c2.89,0,5.42.76,7.6,2.28,2.18,1.52,4.01,3.51,5.52,5.98,1.5,2.47,2.67,5.27,3.51,8.42.84,3.14,1.4,6.36,1.67,9.65.27,3.29.28,6.52.03,9.68Z"/>
  </g>
</svg>