<?xml version="1.0" encoding="UTF-8"?>
<svg id="_Слой_2" data-name="Слой 2" xmlns="http://www.w3.org/2000/svg" viewBox="0 0 245.85 101.59">
  <defs>
    <style>
      .cls-1 {
        fill: #003e6c;
      }

      .cls-2 {
        opacity: .87;
      }
    </style>
  </defs>
  <g id="Layer_1" data-name="Layer 1">
    <g class="cls-2">
      <path class="cls-1" d="M245.6,101.59L0,100.99.25,0l245.6.6-.25,100.99ZM3.83,97.18l237.97.58.23-93.36L4.05,3.83l-.23,93.36Z"/>
      <g>
        <path class="cls-1" d="M80.64,27.48c-2.17-2.93-4.93-5.31-8.27-7.12-3.35-1.81-7.32-2.72-11.93-2.73l-31.4-.08v1.26s4.08,0,4.08,0c1.09,0,2.02.4,2.79,1.2.77.8,1.16,1.76,1.15,2.89l-.06,23.49h-2.53c-1.1-.05-2.79-.14-3.16-.11-.03,0-4.49.73-5.52-6.79l-8.13-1.43c-.21,0-.39.22-.39.49v.05c0,.11.62,1.04,1.36,2.06,1.35,1.88,3.19,3.36,5.31,4.29l6.1,2.67c-3.02.98-4.9,4.04-3.69,7.38l3.1-.83s-4.68-3.98,1.95-5.86c.34-.1.48-.22,1.44-.44.09-.02.53-.13,1.01-.19.99-.14,2.19-.13,3.16-.1l-.05,22.38c-.46.08-.84.17-1.13.25-.29.08-.46.12-.5.12-1.51.41-2.76,1.1-3.74,2.06-.99.96-1.7,2.06-2.14,3.29-.44,1.23-.58,2.53-.42,3.89.16,1.36.66,2.68,1.5,3.96.83,1.28,2.04,2.43,3.6,3.46,1.57,1.03,3.54,1.82,5.93,2.37,1.38.34,2.78.6,4.21.8,1.42.19,2.93.29,4.52.29,1.59,0,3.81-.03,5.63-.29,6.11-.86,8.8-2.79,10.48-3.78l-8.33-1.84c-.11,1.71-1.71,3.95-3.5,4.33-1.64.34-2.12.25-3.59.33-2.05.04-3.75-.32-5.08-1.07-1.34-.75-2.34-1.69-3.01-2.81-.67-1.12-1.01-2.34-1.03-3.65-.02-1.31.3-2.5.95-3.57.65-1.07,1.63-1.92,2.93-2.57,1.3-.65,2.89-.86,4.77-.65,2.18.22,4,.62,5.46,1.21,1.46.59,2.78,1.2,3.95,1.83,1.17.63,2.29,1.2,3.36,1.7,1.07.5,2.29.76,3.67.76,3.43,0,6.5-.88,9.21-2.68,2.71-1.79,4.98-4.15,6.83-7.08,1.85-2.93,3.25-6.27,4.2-10.04.95-3.77,1.42-7.61,1.41-11.52-.01-3.91-.55-7.76-1.6-11.53-1.06-3.77-2.67-7.12-4.84-10.06ZM75.28,60.11c-.3,3.62-.89,6.84-1.75,9.66-.87,2.82-1.97,5.09-3.31,6.8-1.34,1.71-2.92,2.56-4.72,2.56-1,0-2.05-.28-3.14-.82-1.09-.55-2.29-1.21-3.61-1.99-1.32-.78-2.77-1.63-4.36-2.55-1.59-.92-3.37-1.76-5.33-2.52l.06-23.68h2.63c.24,1.25,1.32,2.19,2.63,2.21,1.51.03,2.75-1.18,2.78-2.68.03-1.51-1.18-2.75-2.68-2.78-1.31-.02-2.43.89-2.71,2.12h-2.65s.07-27.58.07-27.58h5.21c3.31.02,6.2.9,8.69,2.64,2.49,1.74,4.58,4.03,6.29,6.85,1.71,2.83,3.04,6.04,4,9.64.95,3.6,1.58,7.28,1.89,11.05.31,3.76.31,7.46,0,11.07Z"/>
        <path class="cls-1" d="M226.99,16.87c-1.2-.02-2.22.74-2.6,1.81h-120.89s-.11-.02-.11-.02c-.58.02-3.51-.16-4.01-.12-.03,0-4.49.74-5.54-6.77l-8.14-1.41c-.21,0-.39.22-.39.49v.05c0,.11.63,1.03,1.37,2.06,1.36,1.88,3.2,3.36,5.32,4.28l6.11,2.65c-3.02.98-4.89,4.05-3.67,7.39l3.1-.84s-4.69-3.97,1.93-5.87c.34-.1.48-.22,1.44-.44.09-.02.53-.13,1-.2,2-.28,4.91,0,4.91,0,1.01.03,2.02.24,2.9.72,1.09.59,1.92,1.45,2.52,2.59l4.39,8.69c1.34,2.92,2.3,5.91,2.89,8.98.58,3.07.88,6.04.88,8.91v1.13c-.04.13-.06.36-.06.69v.31s0,.06,0,.06v.31c-2.55-.96-4.94-1.44-7.16-1.44-3.31,0-6.44.82-9.39,2.45-2.95,1.64-5.62,3.96-8.01,6.99-.84,1.05-1.6,2.31-2.29,3.78-.69,1.47-1.27,2.98-1.73,4.53-.46,1.55-.71,2.76-.75,3.62-.04.86-.06,1.38-.06,1.54,0,.97.13,1.9.38,2.8.25.9.67,1.71,1.26,2.42.59.71,1.36,1.29,2.32,1.73.96.44,2.18.66,3.64.66,2.43,0,4.65-.39,6.66-1.16,2.01-.77,3.82-1.82,5.43-3.14,1.61-1.32,3.05-2.86,4.3-4.62,1.26-1.76,2.32-3.64,3.2-5.65.88-2.01,1.58-4.09,2.1-6.25.52-2.16.89-4.28,1.1-6.37,2.76,1.38,5.21,3.2,7.35,5.45s4,4.7,5.59,7.33l4.52,8.96c.21.42.31.84.31,1.25,0,.04-.01.21-.03.5-.02.29-.16.65-.41,1.06-.25.42-.59.75-1.01,1-.42.25-.9.38-1.44.38h-2.76s0,1.26,0,1.26h28.07s0-1.25,0-1.25h-4.15c-.92,0-1.76-.24-2.51-.72-.75-.48-1.34-1.14-1.76-1.97-.84-1.67-1.99-3.96-3.45-6.86-1.47-2.9-3.07-6.09-4.8-9.56-1.74-3.47-3.56-7.09-5.46-10.87-1.91-3.78-3.75-7.42-5.52-10.9-1.78-3.49-3.4-6.67-4.87-9.56-1.47-2.88-2.64-5.18-3.52-6.89-.17-.29-.25-.59-.25-.88,0-.38.17-.8.5-1.28.33-.48.86-.72,1.57-.72h86.41c1.09,0,2.04.4,2.86,1.2.82.8,1.22,1.74,1.22,2.82v39.59c-.09,2.09-.38,4.05-.88,5.87-.5,1.82-1.16,3.4-1.98,4.74-.82,1.34-1.74,2.38-2.76,3.14-1.03.75-2.1,1.13-3.23,1.13-.96,0-1.93-.3-2.89-.91s-1.88-1.58-2.76-2.92c-1.59-2.34-2.73-4.84-3.42-7.47-.69-2.64-1.17-5.42-1.44-8.35-.27-2.93-.47-6.03-.6-9.29-.13-3.27-.42-6.7-.88-10.3-.34-2.47-1.09-4.76-2.26-6.88-1.17-2.11-2.64-3.94-4.4-5.46-1.76-1.53-3.76-2.73-6-3.61-1.73-.68-11.28-1.18-16.64-.86-.04,0-.08-.02-.12-.02h-.56s0,1.05,0,1.05c.09,0,.18-.01.27-.01h.29s.05-.01.07-.01c2.02-.03,4.24.49,4.73.96.79.77,1.19,1.7,1.19,2.79v48.93c0,1.05-.38,2.09-1.1,2.85-.82.86-1.79,1.29-2.93,1.29h-4.02s0,1.26,0,1.26h17.27s0-1.25,0-1.25h-3.96c-1.18,0-2.18-.43-2.99-1.3-.72-.77-1.09-1.82-1.09-2.87V23.14c2.43.5,4.35,1.64,5.75,3.42,1.4,1.78,2.48,3.97,3.23,6.56.75,2.6,1.27,5.5,1.54,8.7.27,3.2.51,6.47.72,9.8.21,3.33.48,6.62.82,9.86.33,3.24.92,6.21,1.76,8.89.58,1.93,1.38,3.58,2.39,4.96,1,1.38,2.14,2.52,3.42,3.42,1.28.9,2.64,1.57,4.08,2.01,1.44.44,2.92.66,4.43.66,2.05-.04,4.03-.37,5.94-1,1.9-.63,3.59-1.63,5.05-3.01,1.47-1.38,2.66-3.21,3.58-5.49.92-2.28,1.42-5.09,1.51-8.44V23.95c0-1.09.4-2.03,1.2-2.82.8-.79,1.74-1.19,2.83-1.19h1.3c.17,1.33,1.27,2.37,2.65,2.39,1.51.03,2.75-1.18,2.78-2.68.03-1.51-1.18-2.75-2.68-2.78ZM119.7,57.61c-.25,1.47-.61,2.96-1.07,4.49-.46,1.53-1.03,3.02-1.7,4.49-.67,1.47-1.47,2.77-2.39,3.93-.92,1.15-1.97,2.07-3.14,2.76-1.17.69-2.47,1.04-3.89,1.04-1.63,0-3.1-.5-4.4-1.51-1.51-1.17-2.35-2.36-2.51-3.58-.25-1.17-.38-2.16-.38-2.95,0-1.05.19-2.3.57-3.77.17-.71.45-1.46.85-2.26.4-.8.85-1.57,1.35-2.32.5-.75,1.07-1.47,1.7-2.14.63-.67,1.3-1.23,2.01-1.7.92-.59,1.92-1.06,2.98-1.41,1.07-.36,2.25-.53,3.55-.53,1.21,0,2.41.14,3.58.41,1.17.27,2.3.64,3.39,1.1-.08,1.17-.25,2.49-.5,3.96ZM131,60.44c-3.1-3.56-6.28-6.07-9.54-7.54.04-.59.07-1.15.09-1.7.02-.54.03-1.09.03-1.63,0-1.13-.06-2.52-.19-4.18-.13-1.65-.46-3.61-1-5.87l10.61,20.91Z"/>
      </g>
    </g>
  </g>
</svg>